<svg xmlns="http://www.w3.org/2000/svg" width="136" height="28" viewBox="0 0 136 28" fill="none">
  <g clip-path="url(#clip0_951_8558)">
    <path d="M12.3857 3.65217H10.6857C10.149 3.65217 9.71429 3.21635 9.71429 2.67826V0.973913C9.71429 0.435826 10.149 0 10.6857 0H12.3857C12.9224 0 13.3571 0.435826 13.3571 0.973913V2.67826C13.3571 3.21635 12.9224 3.65217 12.3857 3.65217ZM3.64286 7.54783V5.84348C3.64286 5.30539 3.20814 4.86957 2.67143 4.86957H0.971429C0.434714 4.86957 0 5.30539 0 5.84348V7.54783C0 8.08591 0.434714 8.52174 0.971429 8.52174H2.67143C3.20814 8.52174 3.64286 8.08591 3.64286 7.54783ZM8.5 7.54783V5.84348C8.5 5.30539 8.06529 4.86957 7.52857 4.86957H5.82857C5.29186 4.86957 4.85714 5.30539 4.85714 5.84348V7.54783C4.85714 8.08591 5.29186 8.52174 5.82857 8.52174H7.52857C8.06529 8.52174 8.5 8.08591 8.5 7.54783ZM13.3571 7.54783V5.84348C13.3571 5.30539 12.9224 4.86957 12.3857 4.86957H10.6857C10.149 4.86957 9.71429 5.30539 9.71429 5.84348V7.54783C9.71429 8.08591 10.149 8.52174 10.6857 8.52174H12.3857C12.9224 8.52174 13.3571 8.08591 13.3571 7.54783ZM18.2143 7.54783V5.84348C18.2143 5.30539 17.7796 4.86957 17.2429 4.86957H15.5429C15.0061 4.86957 14.5714 5.30539 14.5714 5.84348V7.54783C14.5714 8.08591 15.0061 8.52174 15.5429 8.52174H17.2429C17.7796 8.52174 18.2143 8.08591 18.2143 7.54783ZM23.0714 7.54783V5.84348C23.0714 5.30539 22.6367 4.86957 22.1 4.86957H20.4C19.8633 4.86957 19.4286 5.30539 19.4286 5.84348V7.54783C19.4286 8.08591 19.8633 8.52174 20.4 8.52174H22.1C22.6367 8.52174 23.0714 8.08591 23.0714 7.54783ZM3.64286 12.4174V10.713C3.64286 10.175 3.20814 9.73913 2.67143 9.73913H0.971429C0.434714 9.73913 0 10.175 0 10.713V12.4174C0 12.9555 0.434714 13.3913 0.971429 13.3913H2.67143C3.20814 13.3913 3.64286 12.9555 3.64286 12.4174ZM8.5 12.4174V10.713C8.5 10.175 8.06529 9.73913 7.52857 9.73913H5.82857C5.29186 9.73913 4.85714 10.175 4.85714 10.713V12.4174C4.85714 12.9555 5.29186 13.3913 5.82857 13.3913H7.52857C8.06529 13.3913 8.5 12.9555 8.5 12.4174ZM13.3571 12.4174V10.713C13.3571 10.175 12.9224 9.73913 12.3857 9.73913H10.6857C10.149 9.73913 9.71429 10.175 9.71429 10.713V12.4174C9.71429 12.9555 10.149 13.3913 10.6857 13.3913H12.3857C12.9224 13.3913 13.3571 12.9555 13.3571 12.4174ZM18.2143 12.4174V10.713C18.2143 10.175 17.7796 9.73913 17.2429 9.73913H15.5429C15.0061 9.73913 14.5714 10.175 14.5714 10.713V12.4174C14.5714 12.9555 15.0061 13.3913 15.5429 13.3913H17.2429C17.7796 13.3913 18.2143 12.9555 18.2143 12.4174ZM23.0714 12.4174V10.713C23.0714 10.175 22.6367 9.73913 22.1 9.73913H20.4C19.8633 9.73913 19.4286 10.175 19.4286 10.713V12.4174C19.4286 12.9555 19.8633 13.3913 20.4 13.3913H22.1C22.6367 13.3913 23.0714 12.9555 23.0714 12.4174ZM3.64286 17.287V15.5826C3.64286 15.0445 3.20814 14.6087 2.67143 14.6087H0.971429C0.434714 14.6087 0 15.0445 0 15.5826V17.287C0 17.825 0.434714 18.2609 0.971429 18.2609H2.67143C3.20814 18.2609 3.64286 17.825 3.64286 17.287ZM8.5 17.287V15.5826C8.5 15.0445 8.06529 14.6087 7.52857 14.6087H5.82857C5.29186 14.6087 4.85714 15.0445 4.85714 15.5826V17.287C4.85714 17.825 5.29186 18.2609 5.82857 18.2609H7.52857C8.06529 18.2609 8.5 17.825 8.5 17.287ZM13.3571 17.287V15.5826C13.3571 15.0445 12.9224 14.6087 12.3857 14.6087H10.6857C10.149 14.6087 9.71429 15.0445 9.71429 15.5826V17.287C9.71429 17.825 10.149 18.2609 10.6857 18.2609H12.3857C12.9224 18.2609 13.3571 17.825 13.3571 17.287ZM18.2143 17.287V15.5826C18.2143 15.0445 17.7796 14.6087 17.2429 14.6087H15.5429C15.0061 14.6087 14.5714 15.0445 14.5714 15.5826V17.287C14.5714 17.825 15.0061 18.2609 15.5429 18.2609H17.2429C17.7796 18.2609 18.2143 17.825 18.2143 17.287ZM23.0714 17.287V15.5826C23.0714 15.0445 22.6367 14.6087 22.1 14.6087H20.4C19.8633 14.6087 19.4286 15.0445 19.4286 15.5826V17.287C19.4286 17.825 19.8633 18.2609 20.4 18.2609H22.1C22.6367 18.2609 23.0714 17.825 23.0714 17.287ZM8.5 22.1565V20.4522C8.5 19.9141 8.06529 19.4783 7.52857 19.4783H5.82857C5.29186 19.4783 4.85714 19.9141 4.85714 20.4522V22.1565C4.85714 22.6946 5.29186 23.1304 5.82857 23.1304H7.52857C8.06529 23.1304 8.5 22.6946 8.5 22.1565ZM13.3571 22.1565V20.4522C13.3571 19.9141 12.9224 19.4783 12.3857 19.4783H10.6857C10.149 19.4783 9.71429 19.9141 9.71429 20.4522V22.1565C9.71429 22.6946 10.149 23.1304 10.6857 23.1304H12.3857C12.9224 23.1304 13.3571 22.6946 13.3571 22.1565ZM18.2143 22.1565V20.4522C18.2143 19.9141 17.7796 19.4783 17.2429 19.4783H15.5429C15.0061 19.4783 14.5714 19.9141 14.5714 20.4522V22.1565C14.5714 22.6946 15.0061 23.1304 15.5429 23.1304H17.2429C17.7796 23.1304 18.2143 22.6946 18.2143 22.1565ZM13.3571 27.0261V25.3217C13.3571 24.7837 12.9224 24.3478 12.3857 24.3478H10.6857C10.149 24.3478 9.71429 24.7837 9.71429 25.3217V27.0261C9.71429 27.5642 10.149 28 10.6857 28H12.3857C12.9224 28 13.3571 27.5642 13.3571 27.0261Z" fill="#255FE5"/>
    <path d="M37.5579 15.5035C37.7351 15.8638 37.8238 16.268 37.8238 16.716C37.8238 17.4574 37.6465 18.088 37.2931 18.6103C36.9386 19.1325 36.4504 19.5318 35.8251 19.8082C35.2009 20.0845 34.4724 20.2233 33.6394 20.2233C32.963 20.2233 32.3461 20.1393 31.7888 19.9725C31.2314 19.8057 30.7372 19.561 30.3061 19.2372C29.8739 18.9134 29.4865 18.5226 29.1429 18.0636L30.6109 16.3885C31.1209 17.0983 31.6285 17.5803 32.1336 17.836C32.6388 18.0916 33.1876 18.2195 33.7802 18.2195C34.1032 18.2195 34.391 18.1756 34.6472 18.0868C34.9022 17.9979 35.1026 17.8701 35.2483 17.7033C35.394 17.5365 35.4669 17.3381 35.4669 17.108C35.4669 16.9412 35.4304 16.7866 35.3576 16.6466C35.2847 16.5054 35.1803 16.38 35.0455 16.2704C34.9095 16.1609 34.7492 16.0623 34.561 15.9734C34.374 15.8845 34.1651 15.8066 33.9369 15.7384C33.7074 15.6703 33.4584 15.6155 33.1876 15.5741C32.6048 15.4389 32.0948 15.2746 31.6576 15.081C31.2205 14.8887 30.8562 14.6476 30.5648 14.3616C30.2734 14.0743 30.0572 13.7492 29.9164 13.3828C29.7755 13.0176 29.7051 12.6061 29.7051 12.1459C29.7051 11.6857 29.8095 11.2402 30.0171 10.8384C30.2248 10.4367 30.5138 10.0897 30.8841 9.79756C31.2533 9.50538 31.6807 9.28138 32.164 9.12434C32.6485 8.96729 33.1609 8.88938 33.7013 8.88938C34.3667 8.88938 34.9508 8.96486 35.4499 9.11582C35.9489 9.26677 36.3836 9.48347 36.754 9.7659C37.1231 10.0471 37.4328 10.3916 37.6829 10.7995L36.2003 12.2396C35.9817 11.9475 35.7449 11.7028 35.4899 11.5043C35.2349 11.3059 34.9593 11.1574 34.663 11.0588C34.3667 10.9602 34.0619 10.9103 33.7499 10.9103C33.4062 10.9103 33.1099 10.9553 32.8598 11.0429C32.6096 11.1318 32.4154 11.2596 32.2745 11.4264C32.1336 11.5932 32.0632 11.7965 32.0632 12.0363C32.0632 12.2238 32.1106 12.3918 32.2041 12.5367C32.2976 12.6828 32.4324 12.8106 32.6096 12.9202C32.7869 13.0297 32.9994 13.1259 33.2496 13.2099C33.4997 13.2939 33.7754 13.3669 34.0765 13.429C34.6484 13.5435 35.1645 13.6956 35.6223 13.8831C36.0801 14.0706 36.4735 14.2983 36.8014 14.5636C37.1292 14.8303 37.3818 15.1431 37.5591 15.5023L37.5579 15.5035ZM45.9498 11.9901C45.5284 11.7393 45.0051 11.6139 44.3809 11.6139C43.9231 11.6139 43.486 11.7076 43.0695 11.8951C42.653 12.0826 42.2972 12.3309 41.9997 12.6389C41.9354 12.7059 41.8759 12.7741 41.82 12.8447V8.48277H39.6343V20.065H41.8516V15.0871C41.8516 14.868 41.8953 14.6647 41.9839 14.4772C42.0726 14.2897 42.1916 14.1229 42.3434 13.9769C42.4939 13.8308 42.6761 13.7188 42.8898 13.6409C43.1035 13.5629 43.3342 13.524 43.5844 13.524C43.8964 13.5033 44.1599 13.5532 44.3724 13.6725C44.5861 13.793 44.744 13.9781 44.8484 14.2276C44.9529 14.4784 45.0051 14.7913 45.0051 15.1663V20.065H47.2224V14.9934C47.2224 14.2532 47.1155 13.6287 46.9018 13.1235C46.6881 12.617 46.3711 12.2396 45.9498 11.9889V11.9901ZM51.6241 7.99095C51.3849 7.77669 51.0522 7.66956 50.6248 7.66956C50.1974 7.66956 49.878 7.78156 49.6327 8.00556C49.3886 8.22956 49.266 8.51929 49.266 8.87477C49.266 9.26069 49.385 9.55895 49.6254 9.76712C49.8646 9.97651 50.1974 10.08 50.6248 10.08C51.0522 10.08 51.3716 9.97043 51.6156 9.7513C51.8597 9.53216 51.9824 9.23999 51.9824 8.87477C51.9824 8.50956 51.8621 8.20399 51.6229 7.99095H51.6241ZM49.5319 20.0663H51.7492V11.7868H49.5319V20.0663ZM61.3821 14.0876C61.5691 14.588 61.6529 15.1358 61.6323 15.7311L61.6165 16.4202H55.7296C55.7819 16.6709 55.8681 16.901 55.9883 17.1092C56.202 17.4744 56.5031 17.7593 56.8941 17.9626C57.2851 18.1659 57.7454 18.2682 58.276 18.2682C58.6403 18.2682 58.973 18.2109 59.2754 18.0965C59.5765 17.9821 59.8995 17.7836 60.2431 17.5012L61.3044 18.9876C61.0021 19.2591 60.6694 19.4856 60.3051 19.6682C59.9408 19.8508 59.5656 19.9896 59.1806 20.0833C58.7957 20.177 58.4156 20.2245 58.0404 20.2245C57.1455 20.2245 56.3647 20.0419 55.6981 19.6767C55.0314 19.3115 54.5117 18.8111 54.1365 18.1744C53.7625 17.5377 53.5743 16.8073 53.5743 15.9831C53.5743 15.3464 53.6787 14.7621 53.8864 14.2301C54.094 13.6981 54.3854 13.2367 54.7606 12.8447C55.1346 12.4539 55.5803 12.1508 56.0951 11.9365C56.61 11.7223 57.1698 11.6151 57.7733 11.6151C58.3355 11.6151 58.8552 11.7174 59.3349 11.9207C59.8133 12.124 60.2274 12.4113 60.5759 12.7814C60.9244 13.1515 61.1927 13.5873 61.3797 14.0889L61.3821 14.0876ZM55.9179 14.5563C55.8438 14.7085 55.7879 14.8765 55.7466 15.0567H59.5401V14.9946C59.5194 14.7134 59.4284 14.4577 59.2669 14.2276C59.1054 13.9988 58.9001 13.821 58.65 13.6956C58.3999 13.5703 58.1194 13.5082 57.8073 13.5082C57.3495 13.5082 56.9621 13.597 56.644 13.7748C56.3259 13.9525 56.0842 14.213 55.9179 14.5576V14.5563ZM63.2874 20.0663H65.5046V8.48399H63.2874V20.0663ZM73.3416 8.48399H75.5589V20.0663H73.4667L73.4194 19.0984C73.2688 19.2823 73.0854 19.4515 72.8656 19.6049C72.59 19.7984 72.2779 19.9494 71.9294 20.0589C71.5809 20.1685 71.2142 20.2233 70.8293 20.2233C70.1116 20.2233 69.4656 20.0383 68.8937 19.6682C68.3218 19.2981 67.8713 18.7916 67.5434 18.1501C67.2156 17.5085 67.0516 16.7647 67.0516 15.9198C67.0516 15.0749 67.2156 14.3603 67.5434 13.7127C67.8713 13.0663 68.3181 12.5549 68.8864 12.1788C69.4535 11.8026 70.1019 11.6151 70.8305 11.6151C71.2154 11.6151 71.5882 11.6748 71.9464 11.7953C72.3059 11.9158 72.6276 12.0802 72.9142 12.2883C73.0757 12.4064 73.2166 12.5318 73.3441 12.6645V8.48521L73.3416 8.48399ZM73.4194 15.9186C73.4194 15.4389 73.3307 15.0129 73.1534 14.6428C72.9761 14.2727 72.7321 13.9854 72.42 13.7821C72.1079 13.5788 71.7436 13.4765 71.3271 13.4765C70.9106 13.4765 70.5488 13.5788 70.2416 13.7821C69.9344 13.9854 69.6951 14.2727 69.5227 14.6428C69.3515 15.0129 69.2653 15.4389 69.2653 15.9186C69.2653 16.3983 69.3515 16.8365 69.5227 17.2017C69.6951 17.5669 69.9344 17.8542 70.2416 18.0624C70.5488 18.2718 70.9106 18.3753 71.3271 18.3753C71.7436 18.3753 72.1079 18.2706 72.42 18.0624C72.7321 17.8542 72.9761 17.5669 73.1534 17.2017C73.3307 16.8365 73.4194 16.4092 73.4194 15.9186ZM85.4092 12.0996C85.4092 12.5489 85.4141 12.9628 85.425 13.3438C85.4347 13.7249 85.4481 14.0852 85.4639 14.4236C85.4796 14.7633 85.5003 15.092 85.5258 15.4097C85.5513 15.7287 85.5804 16.0416 85.612 16.3483C85.6205 16.4275 85.629 16.5103 85.6387 16.5906L80.1174 9.10973H78.0251V20.0663H80.3201V16.1219C80.3201 15.9137 80.3177 15.7153 80.3129 15.5266C80.308 15.3391 80.2971 15.1407 80.2813 14.9313C80.2655 14.7231 80.2473 14.4772 80.2266 14.196C80.206 13.9148 80.1769 13.5836 80.1404 13.2026C80.1259 13.0516 80.1101 12.8873 80.0931 12.712L85.5816 20.0663H87.7054V9.10973H85.4104V12.0996H85.4092ZM97.4926 14.0876C97.6796 14.588 97.7634 15.1358 97.7427 15.7311L97.7269 16.4202H91.8401C91.8923 16.6709 91.9785 16.901 92.0987 17.1092C92.3124 17.4744 92.6136 17.7593 93.0046 17.9626C93.3956 18.1659 93.8558 18.2682 94.3864 18.2682C94.7507 18.2682 95.0834 18.2109 95.3858 18.0965C95.6869 17.9821 96.0099 17.7836 96.3536 17.5012L97.4149 18.9876C97.1125 19.2591 96.7798 19.4856 96.4155 19.6682C96.0512 19.8508 95.676 19.9896 95.2911 20.0833C94.9061 20.177 94.5261 20.2245 94.1509 20.2245C93.2559 20.2245 92.4751 20.0419 91.8085 19.6767C91.1419 19.3115 90.6222 18.8111 90.2469 18.1744C89.8729 17.5377 89.6847 16.8073 89.6847 15.9831C89.6847 15.3464 89.7892 14.7621 89.9968 14.2301C90.2044 13.6981 90.4959 13.2367 90.8711 12.8447C91.2451 12.4539 91.6907 12.1508 92.2056 11.9365C92.7204 11.7223 93.2802 11.6151 93.8837 11.6151C94.4459 11.6151 94.9656 11.7174 95.4453 11.9207C95.9237 12.124 96.3378 12.4113 96.6863 12.7814C97.0348 13.1515 97.3031 13.5873 97.4901 14.0889L97.4926 14.0876ZM92.0283 14.5563C91.9542 14.7085 91.8984 14.8765 91.8571 15.0567H95.6505V14.9946C95.6299 14.7134 95.5388 14.4577 95.3773 14.2276C95.2158 13.9988 95.0106 13.821 94.7604 13.6956C94.5103 13.5703 94.2298 13.5082 93.9177 13.5082C93.4599 13.5082 93.0726 13.597 92.7544 13.7748C92.4363 13.9525 92.1946 14.213 92.0283 14.5576V14.5563ZM102.396 9.68921H100.179V11.7868H98.6328V13.7748H100.179V20.0675H102.396V13.7748H104.083V11.7868H102.396V9.68921ZM115.923 14.0085C115.6 13.6956 115.231 13.4509 114.814 13.2732C114.495 13.1369 114.157 13.0541 113.802 13.0224L116.672 9.90834L116.251 9.04764H109.678V11.0673L113.3 11.1172L110.785 13.8697L111.332 15.3099C111.56 15.2162 111.774 15.1358 111.972 15.0676C112.17 14.9995 112.362 14.9508 112.55 14.9191C112.737 14.8875 112.909 14.8716 113.065 14.8716C113.418 14.8716 113.725 14.9337 113.986 15.0591C114.246 15.1845 114.444 15.3671 114.58 15.6069C114.715 15.8468 114.783 16.145 114.783 16.4993C114.783 16.8536 114.701 17.1494 114.541 17.4148C114.38 17.6814 114.164 17.8871 113.893 18.0332C113.622 18.1793 113.331 18.2523 113.018 18.2523C112.727 18.2523 112.447 18.2 112.176 18.0953C111.905 17.9906 111.648 17.8238 111.403 17.5949C111.159 17.3661 110.917 17.0678 110.677 16.7026L108.96 17.7983C109.491 18.6857 110.071 19.3115 110.702 19.6767C111.332 20.0419 112.068 20.2245 112.91 20.2245C113.671 20.2245 114.354 20.0602 114.964 19.7315C115.572 19.4028 116.057 18.9548 116.416 18.385C116.775 17.8165 116.955 17.1725 116.955 16.4518C116.955 15.9722 116.864 15.5229 116.682 15.1054C116.5 14.6878 116.247 14.3226 115.924 14.0097L115.923 14.0085ZM125.547 14.213C125.855 14.756 126.008 15.3501 126.008 15.9977C126.008 16.7805 125.839 17.4769 125.5 18.0868C125.161 18.6967 124.694 19.18 124.095 19.5343C123.497 19.8897 122.818 20.0663 122.058 20.0663C121.506 20.0663 120.988 19.9676 120.505 19.7692C120.02 19.5708 119.599 19.2944 119.24 18.9402C118.881 18.5859 118.601 18.1683 118.398 17.6875C118.195 17.2078 118.093 16.6916 118.093 16.1377C118.093 15.7932 118.134 15.4414 118.218 15.081C118.301 14.7207 118.418 14.3482 118.569 13.9623C118.72 13.5763 118.904 13.1746 119.123 12.757C119.341 12.3395 119.585 11.9061 119.856 11.4581L121.355 8.93808H123.54L123.602 9.09512L121.619 12.3042C121.54 12.4332 121.465 12.5598 121.391 12.6852C121.482 12.6463 121.573 12.6097 121.665 12.5781C121.988 12.4685 122.305 12.4137 122.617 12.4137C123.232 12.4137 123.796 12.5781 124.311 12.9068C124.826 13.2355 125.238 13.6713 125.545 14.2143L125.547 14.213ZM123.917 16.1536C123.917 15.8297 123.835 15.5254 123.675 15.2381C123.514 14.9508 123.295 14.7195 123.019 14.5417C122.744 14.364 122.439 14.2751 122.106 14.2751C121.742 14.2751 121.416 14.3616 121.13 14.5332C120.843 14.7049 120.62 14.9301 120.458 15.2064C120.297 15.4828 120.217 15.7932 120.217 16.1377C120.217 16.5139 120.297 16.845 120.458 17.1311C120.62 17.4184 120.841 17.6473 121.121 17.8202C121.402 17.9918 121.725 18.0783 122.089 18.0783C122.453 18.0783 122.758 17.9979 123.034 17.836C123.31 17.6741 123.526 17.4476 123.682 17.1555C123.839 16.8633 123.917 16.5297 123.917 16.1536ZM136 14.588C136 15.7676 135.825 16.7769 135.477 17.6169C135.128 18.4569 134.621 19.1009 133.954 19.5501C133.287 19.9993 132.486 20.2233 131.55 20.2233C130.613 20.2233 129.814 19.9993 129.153 19.5501C128.492 19.1021 127.987 18.4569 127.638 17.6169C127.29 16.7769 127.115 15.7676 127.115 14.588C127.115 13.4083 127.289 12.3991 127.638 11.5591C127.987 10.7191 128.492 10.0751 129.153 9.6259C129.813 9.1779 130.612 8.95269 131.55 8.95269C132.487 8.95269 133.287 9.17669 133.954 9.6259C134.619 10.0751 135.127 10.7191 135.477 11.5591C135.825 12.3991 136 13.4083 136 14.588ZM133.752 14.588C133.752 13.4083 133.559 12.5014 133.174 11.8647C132.789 11.228 132.248 10.9103 131.551 10.9103C130.854 10.9103 130.299 11.2292 129.919 11.8647C129.539 12.5014 129.349 13.4096 129.349 14.588C129.349 15.7664 129.539 16.6381 129.919 17.265C130.299 17.8908 130.843 18.2036 131.551 18.2036C132.259 18.2036 132.789 17.8908 133.174 17.265C133.559 16.6393 133.752 15.7469 133.752 14.588Z" fill="black"/>
  </g>
  <defs>
    <clipPath id="clip0_951_8558">
      <rect width="136" height="28" fill="white"/>
    </clipPath>
  </defs>
</svg>